<svg width="80" height="80" viewBox="0 0 80 80" fill="none" xmlns="http://www.w3.org/2000/svg">
<path d="M72.7302 54.5095C70.8963 55.5428 68.7559 55.8283 66.7515 55.2318C64.7034 54.6599 63.0452 53.3506 62.0119 51.5166C60.9786 49.6826 60.7177 47.586 61.2896 45.5379C61.8615 43.4898 63.1708 41.8316 65.0048 40.7983C66.8388 39.7649 68.9354 39.504 70.9835 40.0759C75.1479 41.2388 77.6083 45.6054 76.4454 49.7698C75.8736 51.8179 74.5642 53.4761 72.7302 54.5095Z" fill="#F87000"/>
<path d="M14.7779 38.953C12.9439 39.9864 10.8036 40.2718 8.79919 39.6753C6.7511 39.1034 5.09291 37.7941 4.05957 35.9601C3.02623 34.1261 2.76536 32.0295 3.33724 29.9814C3.90913 27.9333 5.21846 26.2751 7.05245 25.2418C8.88643 24.2085 10.9831 23.9476 13.0312 24.5195C15.0793 25.0914 16.7374 26.4007 17.7708 28.2347C18.8041 30.0687 19.0896 32.209 18.4931 34.2134C17.9403 36.1932 16.6119 37.9197 14.7779 38.953Z" fill="#F87000"/>
<path d="M51.6839 17.871C49.8499 18.9043 47.7096 19.1898 45.7052 18.5933C41.5408 17.4305 39.0804 13.0639 40.2433 8.8994C40.8151 6.85131 42.1245 5.19312 43.9585 4.15978C45.7924 3.12644 47.8891 2.86557 49.9372 3.43745C54.1016 4.60029 56.562 8.96692 55.3991 13.1314C54.8272 15.1795 53.5179 16.8377 51.6839 17.871Z" fill="#F87000"/>
<path d="M35.5702 75.447C33.7362 76.4803 31.5959 76.7658 29.5915 76.1693C27.5434 75.5974 25.8852 74.2881 24.8519 72.4541C23.8185 70.6201 23.5577 68.5235 24.1295 66.4754C24.2439 66.0657 24.402 65.6315 24.6473 65.1481C24.7291 64.987 24.8109 64.8258 24.8737 64.7329C25.0618 64.4543 25.25 64.1757 25.3946 63.9217C25.5009 63.8042 25.5827 63.6431 25.6891 63.5256C25.9019 63.2906 26.1147 63.0557 26.3712 62.7961C26.4148 62.7715 26.4776 62.6786 26.5212 62.654C26.5649 62.6294 26.6086 62.6048 26.584 62.5612L28.0631 61.6127C28.2377 61.5143 28.4807 61.435 28.699 61.3119L28.7863 61.2627C28.83 61.2381 28.9173 61.1889 28.961 61.1643L29.0047 61.1397L29.092 61.0905L29.1357 61.0659C29.2667 60.9921 29.354 60.9429 29.485 60.8691C32.105 59.3929 34.0853 56.7813 34.8804 53.8021C35.6509 50.7792 35.2227 47.5687 33.7028 44.9733L33.6536 44.886L33.6044 44.7987C33.5552 44.7113 33.5306 44.6677 33.4377 44.6049C33.3885 44.5176 33.3393 44.4303 33.2464 44.3675L33.148 44.1929C33.0742 44.0619 32.9567 43.9555 32.8829 43.8245L32.1528 42.2224C32.1282 42.1787 32.1036 42.135 32.1226 42.0667L32.1171 41.9548C32.0322 41.5999 31.9282 41.3133 31.887 40.9339C31.8323 40.7346 31.8704 40.5981 31.8403 40.4425C31.8236 40.1066 31.807 39.7708 31.815 39.4787C31.8095 39.3668 31.823 39.1866 31.8611 39.05C31.9017 38.5094 31.9914 38.0561 32.1058 37.6465C32.6777 35.5984 33.987 33.9402 35.821 32.9069C37.655 31.8735 39.7953 31.5881 41.7997 32.1845C45.9642 33.3474 48.4245 37.714 47.2617 41.8785C47.1473 42.2881 46.9893 42.7223 46.7439 43.2057C46.6621 43.3669 46.5994 43.4597 46.5176 43.6209C46.3294 43.8995 46.1849 44.1535 45.9967 44.4321C45.8903 44.5496 45.8085 44.7108 45.7021 44.8282C45.4893 45.0632 45.2765 45.2981 45.0201 45.5577L44.87 45.6998C44.8263 45.7244 44.8073 45.7927 44.7636 45.8173L43.3091 46.8094C43.1344 46.9078 42.9352 46.9625 42.7168 47.0856L42.5858 47.1594C42.5422 47.184 42.4548 47.2332 42.4112 47.2578L42.3675 47.2824L42.2802 47.3316L42.2365 47.3562C42.1055 47.43 42.0182 47.4792 41.8872 47.553C39.2672 49.0292 37.2869 51.6407 36.4918 54.62C35.7213 57.6429 36.1495 60.8534 37.6694 63.4488L37.7186 63.5361L37.7678 63.6234C37.817 63.7108 37.8416 63.7544 37.9345 63.8172C37.9837 63.9045 38.0329 63.9918 38.1258 64.0546C38.1504 64.0982 38.1996 64.1856 38.2924 64.2483C38.3417 64.3356 38.4591 64.442 38.5083 64.5293L38.5329 64.573L39.2385 66.1315C39.2631 66.1751 39.3178 66.3744 39.2987 66.4427C39.3836 66.7976 39.4685 67.1524 39.5042 67.42C39.5344 67.5756 39.5645 67.7312 39.551 67.9114C39.5676 68.2472 39.5842 68.583 39.6008 68.9188C39.6064 69.0307 39.5929 69.2109 39.5793 69.3911C39.5142 69.8881 39.449 70.385 39.3346 70.7947C38.7572 72.7308 37.4042 74.4136 35.5702 75.447Z" fill="#F87000"/>
<path d="M54.1284 64.9905C52.2944 66.0239 50.1541 66.3093 48.1497 65.7128C46.1016 65.1409 44.4434 63.8316 43.41 61.9976C42.3767 60.1636 42.1158 58.067 42.6877 56.0189C42.8021 55.6093 42.9601 55.1751 43.2055 54.6916C43.2436 54.5551 43.35 54.4376 43.3881 54.3011C43.5763 54.0225 43.7209 53.7685 43.909 53.4898C44.0154 53.3724 44.0972 53.2112 44.2036 53.0937C44.4164 52.8588 44.6292 52.6238 44.8857 52.3643L45.0985 52.1293L46.5966 51.1126C46.7713 51.0142 47.0142 50.9348 47.1889 50.8364L47.3199 50.7626C47.4072 50.7134 47.4509 50.6888 47.5382 50.6396C47.5819 50.615 47.5819 50.615 47.6256 50.5904L47.6692 50.5658L47.7129 50.5412C47.8439 50.4674 47.9312 50.4182 48.0622 50.3444C50.6822 48.8682 52.6625 46.2566 53.4576 43.2774C54.2281 40.2544 53.7999 37.044 52.28 34.4486L52.1078 34.1429L52.0395 34.1239L52.0149 34.0802C51.9657 33.9929 51.9411 33.9492 51.8919 33.8619L51.7252 33.6682C51.6514 33.5372 51.5339 33.4308 51.4847 33.3434L50.7355 31.8096C50.7109 31.7659 50.6562 31.5666 50.6753 31.4984C50.5658 31.0998 50.5055 30.7886 50.4698 30.5211C50.4396 30.3655 50.4095 30.2099 50.423 30.0297C50.431 29.7375 50.3707 29.4263 50.3978 29.0659L50.4168 28.9976C50.4113 28.8857 50.4057 28.7738 50.4439 28.6372C50.4844 28.0966 50.5742 27.6433 50.6886 27.2337C51.2605 25.1856 52.5698 23.5274 54.4038 22.4941C56.2378 21.4608 58.3344 21.1999 60.3825 21.7718C64.547 22.9346 67.0073 27.3012 65.8445 31.4657C65.7301 31.8753 65.572 32.3095 65.3267 32.793C65.2639 32.8858 65.2449 32.9541 65.1821 33.047L65.1003 33.2081C64.9558 33.4621 64.7676 33.7407 64.5794 34.0194C64.4731 34.1368 64.3913 34.298 64.2849 34.4155C64.0721 34.6504 63.8593 34.8854 63.6028 35.1449C63.5155 35.1941 63.4964 35.2624 63.4528 35.287C63.4091 35.3116 63.3654 35.3362 63.39 35.3799L61.9109 36.3283C61.6926 36.4513 61.406 36.5553 61.1631 36.6346C61.0757 36.6839 61.0321 36.7085 60.9447 36.7577C60.9011 36.7823 60.9011 36.7823 60.8574 36.8069L60.7264 36.8807C60.5954 36.9545 60.5081 37.0037 60.3771 37.0775C57.7571 38.5537 55.7768 41.1652 54.9817 44.1445C54.2112 47.1674 54.6394 50.3779 56.2029 52.9487L56.2521 53.036L56.3014 53.1233C56.3506 53.2107 56.3998 53.298 56.468 53.3171C56.5172 53.4044 56.5664 53.4917 56.5911 53.5354C56.6157 53.5791 56.6649 53.6664 56.7577 53.7291C56.8315 53.8601 56.9244 53.9228 56.9982 54.0538L57.7283 55.656C57.753 55.6996 57.764 55.9235 57.764 55.9235C57.8489 56.2784 57.9338 56.6333 57.9941 56.9445C58.0242 57.1001 58.0544 57.2557 58.0163 57.3922L58.0409 57.4359C58.0575 57.7717 58.0495 58.0638 58.0661 58.3996C58.0526 58.5798 58.0581 58.6918 58.0446 58.872C58.0041 59.4126 57.9143 59.8659 57.7999 60.2755C57.2717 62.299 55.9624 63.9572 54.1284 64.9905Z" fill="#F87000"/>
<path d="M25.1384 56.9324C23.3044 57.9658 21.1832 58.183 19.1597 57.6548C17.1116 57.0829 15.4534 55.7735 14.42 53.9396C13.3867 52.1056 13.1258 50.0089 13.6977 47.9608C13.8121 47.5512 13.9701 47.117 14.2155 46.6336C14.2536 46.497 14.36 46.3796 14.4418 46.2184C14.5863 45.9644 14.7745 45.6858 14.9627 45.4072C15.0691 45.2897 15.1509 45.1285 15.2573 45.0111C15.4701 44.7761 15.6829 44.5412 15.9639 44.3253L16.114 44.1832C16.1577 44.1586 16.1577 44.1586 16.1767 44.0903L17.6749 43.0736C17.8932 42.9506 18.1362 42.8712 18.3791 42.7919L18.4228 42.7673C18.5101 42.7181 18.5538 42.6935 18.6411 42.6443C18.6848 42.6197 18.6848 42.6197 18.7284 42.5951L18.8158 42.5458L18.8594 42.5212C18.9904 42.4474 19.0778 42.3982 19.2088 42.3244C21.8288 40.8482 23.809 38.2367 24.6041 35.2574C25.3746 32.2345 24.9464 29.024 23.3829 26.4533L23.3337 26.3659L23.2845 26.2786C23.2353 26.1913 23.1861 26.1039 23.0932 26.0412C23.044 25.9539 23.0194 25.9102 22.9702 25.8229L22.8281 25.6728C22.7543 25.5418 22.6368 25.4354 22.563 25.3044L21.8384 23.8142L21.8138 23.7706L21.7892 23.7269C21.7646 23.6832 21.7099 23.484 21.7099 23.484C21.6004 23.0854 21.5155 22.7305 21.4798 22.463C21.4497 22.3074 21.4632 22.1272 21.433 21.9716C21.4164 21.6358 21.4244 21.3437 21.4078 21.0078L21.4268 20.9396C21.4459 20.8713 21.4594 20.6911 21.4539 20.5792C21.4944 20.0385 21.5842 19.5853 21.6986 19.1756C22.2705 17.1276 23.5798 15.4694 25.4138 14.436C27.2478 13.4027 29.3881 13.1172 31.3925 13.7137C35.557 14.8765 38.0173 19.2432 36.8545 23.4076C36.7401 23.8172 36.582 24.2515 36.3367 24.7349C36.2985 24.8714 36.2358 24.9643 36.1294 25.0818L36.1104 25.15C35.9222 25.4287 35.7776 25.6827 35.5895 25.9613C35.4831 26.0788 35.4013 26.2399 35.2949 26.3574C35.0821 26.5923 34.8693 26.8273 34.6128 27.0869C34.5692 27.1115 34.5064 27.2043 34.4628 27.2289C34.4191 27.2535 34.3754 27.2781 34.4 27.3218L32.9209 28.2703C32.7463 28.3687 32.5033 28.448 32.285 28.571L32.1977 28.6202C32.1103 28.6694 32.0667 28.6941 31.9793 28.7433C31.9357 28.7679 31.9357 28.7679 31.892 28.7925L31.8483 28.8171L31.761 28.8663C31.63 28.9401 31.5427 28.9893 31.4117 29.0631C28.7917 30.5393 26.8114 33.1508 26.0163 36.1301C25.2458 39.153 25.674 42.3635 27.1939 44.9589L27.2431 45.0462L27.2923 45.1335C27.3415 45.2209 27.3907 45.3082 27.459 45.3272C27.5082 45.4146 27.5574 45.5019 27.6066 45.5892C27.6312 45.6329 27.6804 45.7202 27.7733 45.783C27.8471 45.914 27.94 45.9767 28.0138 46.1077L28.7193 47.6662C28.7439 47.7098 28.7685 47.7535 28.7494 47.8218L28.7796 47.9774C28.8891 48.3759 28.9494 48.6871 29.0097 48.9983C29.0398 49.1539 29.0263 49.3341 29.0564 49.4897C29.073 49.8255 29.0651 50.1177 29.0817 50.4535C29.0682 50.6337 29.0737 50.7456 29.0602 50.9258C29.0196 51.4664 28.9298 51.9197 28.8155 52.3294C28.3008 54.1726 26.9724 55.8991 25.1384 56.9324Z" fill="#F87000"/>
</svg>
